<?xml version="1.0" encoding="UTF-8"?>
<svg id="Layer_1" data-name="Layer 1" xmlns="http://www.w3.org/2000/svg" viewBox="0 0 300 83.37">
  <defs>
    <style>
      .cls-1 {
        stroke-width: 0px;
      }
    </style>
  </defs>
  <path id="shape-1" class="cls-1" d="m169.35,64.91c-.24.35-.55.51-.94.68-.39.17-.77.38-1.18.5-.84.25-1.59.27-2.42-.03-.91-.32-1.78-.7-2.6-1.23-.35-.23-.73-.46-1.03-.76-.32-.31-.49-.73-.77-1.06-.31-.36-.7-.64-1.01-1-.31-.35-.56-.74-.79-1.14-.5-.86-.98-1.72-1.68-2.44-.7-.71-1.52-1.35-2.28-1.99-.29-.24-.59-.47-.9-.7,1,1.81,1.88,3.68,3.02,5.41.64.96,1.35,1.89,2.06,2.79.42.54.83,1.09,1.25,1.64.31.34.59.67.86,1.07.25.36-.67.21-.84.02-.31-.35-.6-.72-.88-1.09-.12-.13-.25-.26-.38-.4-.21-.22-.31-.32-.59-.09-.28.23-.2.59-.14.91.11.6.24,1.18.61,1.68.16.22.43.56.74.53.34-.03.67-.39.94-.58.19-.14.95-.05.87.3-.18.73-1.19,1.17-1.83,1.41-.87.33-1.67.59-2.55.17-.86-.4-1.54-1.18-2.22-1.82-.77-.72-1.42-1.54-2.13-2.32-1.44-1.59-3.07-3.03-4.4-4.72-.64-.8-1.19-1.67-1.82-2.47-.34-.43-.74-.79-1.11-1.18-.32-.34-.57-.73-.91-1.05-.7-.68-1.58-1.14-2.38-1.7-.63-.44-1.31-1.03-2.08-1.25.19.3.36.61.55.92.51.83,1.12,1.59,1.74,2.33,1.29,1.54,2.8,2.82,4.3,4.16.73.65,1.51,1.25,2.25,1.89.35.3.69.6,1.03.9.1.09.19.21.29.33.23.16.44.34.59.58.23.37-.56.23-.7.14-.24-.16-.43-.38-.62-.6-.43-.3-1-.51-1.39-.72-.37-.19-.82-.44-1.26-.33-.46.12-.45.57-.35.94.23.86.88,1.63,1.64,2.07.3.18.6.31.89.24.46-.24.78-.62.82-1.28.01-.29.88-.1.9.18.05.71-.31,1.2-.82,1.44-.44.27-1.01.4-1.56.46-1.41.17-2.83-.01-4.17-.46-1.41-.47-2.6-1.35-3.76-2.27-1.28-1.01-2.64-1.94-3.86-3.03-1.11-.99-2.3-1.88-3.44-2.83-1.08-.9-2.12-1.85-3.19-2.78-.52-.45-1.17-.74-1.7-1.19-.53-.45-.94-.72-1.62-.9-.77-.2-1.46-.35-2.26-.4-.67-.04-1.33-.1-1.99-.14-.64-.04-1.31-.11-1.95-.18-.68-.08-1.34-.1-2.02-.15-1.42-.1-2.85-.26-4.25-.54-1.47-.3-2.91-.7-4.34-1.16-.62-.2-1.14-.54-1.73-.81-.57-.26-1.1-.52-1.62-.86-1.28-.85-2.52-1.74-4.11-1.77-1.42-.03-2.8.51-4.2.63-.61.05-1.28.06-1.89.01-.34-.02-.66-.15-.81-.48-.18-.42-.05-1.01-.02-1.45.05-.59.18-1.17.34-1.74.31-1.07.66-2.12,1.13-3.13-.62,1.17-1.13,2.4-1.51,3.68-.56,1.87-.81,3.78-1.03,5.71-.12,1.03-.22,1.99-.11,3.03.1.91.26,1.79.59,2.64.04.11-.1.17-.17.19-.87.18-1.8-.08-2.6-.41-.87-.36-1.77-.84-2.51-1.42-.4-.32-.72-.72-1.18-.97-.49-.26-1.06-.34-1.59-.5-.66-.19-1.23-.55-1.67-1.08-.49-.58-.78-1.29-1.14-1.96-.21-.39-.49-.73-.69-1.13-.19-.4-.26-.84-.42-1.25-.36-.93-1.01-1.73-1.63-2.5-.68-.85-1.52-1.4-2.41-1.99-1.64-1.07-3.27-2.31-4.59-3.77-.35-.39.52-.37.72-.15,1.41,1.56,3.16,2.83,4.92,3.97,1.43.93,2.7,2.24,3.52,3.75.43.8.55,1.71,1.06,2.47.4.59.67,1.25,1.03,1.87.45.77.96,1.2,1.82,1.43.8.21,1.57.44,2.21.98.68.58,1.31,1.08,2.11,1.5.67.35,1.48.77,2.26.7-.35-.96-.51-1.96-.59-2.98-.09-1.11.11-2.18.22-3.28.4-4.06,1.62-7.91,4.02-11.25.6-.84,1.33-1.57,1.96-2.39.59-.77,1.06-1.65,1.62-2.45.58-.83,1.19-1.58,2.01-2.19.4-.3.83-.56,1.19-.91.26-.25.51-.47.83-.63.15-.07.97.05.81.34-.68,1.21-1.81,2.2-2.71,3.25-1.03,1.21-1.93,2.55-2.87,3.83-1.82,2.48-3.36,5.12-3.95,8.19-.11.55-.2,1.19-.17,1.75,0-.02.02.14.03.22h.86c1.37,0,2.73-.46,4.1-.6,1.17-.12,2.45.05,3.5.59,1.15.58,2.15,1.46,3.33,2,.61.28,1.21.67,1.85.88.65.22,1.31.41,1.97.6,1.39.39,2.83.72,4.27.86,2.55.24,5.11.36,7.65.64.68.07,1.34.05,2,.22.6.15,1.25.29,1.82.54.49.22.89.57,1.3.92.43.36.94.61,1.39.94.53.39,1.02.88,1.52,1.31.49.42.97.86,1.46,1.28,1.09.93,2.26,1.75,3.33,2.7,1.06.94,2.14,1.81,3.28,2.66,1.1.82,2.14,1.76,3.34,2.43,1.18.66,2.58.98,3.93.93.27,0,.56-.03.85-.07-1.11-.47-2.04-1.44-2.43-2.57-.17-.49-.19-1.06.32-1.34.43-.24,1.08-.18,1.53-.06.22.06.44.14.65.23-.07-.06-.13-.11-.19-.17-.84-.7-1.69-1.38-2.5-2.12-1.45-1.32-2.87-2.58-4.13-4.09-.62-.74-1.21-1.51-1.7-2.34-.45-.77-1-1.41-1.55-2.1-.64-.8-1.49-1.47-2.27-2.14-.79-.68-1.61-1.32-2.44-1.95-1.61-1.21-3.26-2.37-4.83-3.62-.17-.14-.07-.26.09-.32.2-.08.48.05.64.17,1.8,1.43,3.7,2.74,5.52,4.15,1.52,1.17,3.12,2.41,4.32,3.92.18.22.37.43.56.65.9.12,1.69.58,2.43,1.09.78.54,1.58,1.05,2.35,1.6.72.52,1.2,1.16,1.8,1.79.64.67,1.23,1.31,1.78,2.06,1.18,1.64,2.48,3.13,3.91,4.57,1.44,1.46,2.73,3.07,4.23,4.46.36.33.69.71,1.1.98.57.38,1.05.15,1.63-.06.18-.07.41-.15.64-.26-.27-.06-.53-.18-.76-.34-.86-.6-1.17-1.62-1.32-2.6-.07-.43-.05-.84.35-1.08.23-.14.51-.23.79-.24-.22-.3-.44-.59-.67-.88-.77-.99-1.51-2.02-2.18-3.08-.63-.98-1.08-2.04-1.67-3.04-.53-.9-.95-1.91-1.58-2.74-.66-.85-1.37-1.69-1.98-2.58-.32-.46-.59-.94-.91-1.4-.27-.38-.6-.71-.87-1.08-.61-.86-1.43-1.61-2.12-2.42-.68-.81-1.42-1.61-2.27-2.24-.45-.33-.96-.58-1.42-.91-.4-.29-.78-.61-1.18-.91-.78-.59-1.49-1.23-2.07-2.02-.24-.33.67-.25.84-.02.72.99,1.7,1.69,2.66,2.44.91.71,1.92,1.2,2.76,2.01,1.49,1.42,2.77,3.06,4.1,4.61.68.8,1.15,1.76,1.8,2.58.49.62,1.03,1.22,1.49,1.88.25,0,.56.13.59.31.06.27.8.68.99.82.3.22.6.45.88.7.66.57,1.36,1.12,1.99,1.73.54.52,1,1.12,1.38,1.76.44.73.8,1.52,1.4,2.14.26.27.55.49.8.76.26.28.42.6.64.9.51.68,1.48,1.16,2.24,1.5.39.18.78.33,1.19.46.44.15.9.07,1.34-.05.17-.04.33-.11.49-.18-.4-.11-.77-.31-1.1-.56-.87-.66-1.49-1.93-1.5-3.03,0-.94.92-1.65,1.8-1.48-.19-.23-.38-.45-.56-.67-1-1.22-2.01-2.44-3.01-3.66-.96-1.17-1.98-2.3-2.83-3.56-.84-1.25-1.57-2.56-2.64-3.63-.31-.31.24-.35.56-.24-.02,0-.03-.02-.05-.03-1.03-.69-1.95-1.58-2.84-2.43-.43-.41-.95-.72-1.38-1.15-.42-.42-.81-.79-1.3-1.12-.51-.35-.94-.78-1.44-1.13-.49-.34-.96-.71-1.44-1.07-1.01-.75-2.14-1.32-3.21-1.98-1.04-.63-1.88-1.44-2.68-2.36-.15-.17.13-.26.24-.26.22-.02.45.09.59.25.47.54.97,1.07,1.53,1.52.5.4,1.07.7,1.6,1.05.51.34,1.08.56,1.59.89.48.31.94.66,1.39,1,.91.69,1.82,1.43,2.76,2.07.44.3.77.69,1.16,1.06.36.35.8.61,1.17.95.87.8,1.7,1.65,2.66,2.34.87.63,1.89,1.09,2.82,1.62.51.29,1.05.53,1.57.8.45.24.92.38,1.35.67.48.33,1.05.53,1.56.84.49.29,1,.57,1.49.85.55.32,1.13.49,1.7.75.61.28,1.25.6,1.93.31.44-.19.82-.49,1.13-.86-.3.03-.62.01-.92,0-.95-.08-1.76-.44-2.13-1.36-.2-.5-.49-1.05-.24-1.58.21-.44.63-.73,1.12-.77.18-.01.36,0,.54.03-.65-.52-1.25-1.06-1.86-1.64-.33-.31-.7-.57-1.01-.89-.3-.31-.7-.42-1.02-.72-.74-.69-1.58-1.26-2.37-1.9-1.54-1.24-3.19-2.37-4.88-3.39-.81-.49-1.65-.93-2.49-1.37-.85-.45-1.68-.92-2.59-1.25-1.8-.66-3.58-1.37-5.37-2.06-1.73-.67-3.38-1.46-5.05-2.26-.38-.18-.71-.49-1.1-.65-.4-.16-.89-.19-1.31-.28-.99-.21-1.98-.35-2.98-.45-1.98-.2-3.99-.27-5.97-.3-.93-.01-1.87-.12-2.81-.16-.99-.04-1.97-.1-2.95-.19-1.08-.1-2.17-.07-3.25-.06-.84,0-1.63,0-2.4-.34-.57-.25-.05-.55.36-.37.58.25,1.19.2,1.8.2.6,0,1.2,0,1.79,0,1.18,0,2.34.17,3.52.21,1.04.04,2.08.06,3.12.16.59.05,1.17,0,1.76.01.48.02.96.13,1.44.14,1.98.07,3.95.14,5.91.52.83.16,1.79.24,2.56.62.4.21.76.49,1.18.67.38.17.76.35,1.13.53,1.7.87,3.47,1.51,5.25,2.2.88.34,1.76.65,2.63,1.02.84.35,1.72.61,2.52,1.05,1.69.91,3.44,1.76,5.02,2.86.78.55,1.61,1.02,2.39,1.57.82.58,1.57,1.27,2.38,1.87.7.51,1.32,1.14,2.07,1.58.34.2.58.53.89.77.33.26.63.55.94.85.66.65,1.36,1.18,2.08,1.74.2.16.38.37.61.48.15.07.3.1.45.19.3.17.51.44.78.66.33.27-.24.34-.42.3-.77-.19-1.35-.73-2.01-1.13-.46-.29-.95-.49-1.35-.02-.31.36-.24.75-.09,1.15.12.33.24.76.51,1,.27.23.64.24.98.25.39,0,.66-.04.99-.25.2-.13.4-.24.55-.43.06-.08.08-.19.15-.28.16-.2.98,0,.87.3-.39,1.06-1.14,2.06-2.22,2.49-1.28.51-2.44-.31-3.61-.7-1.2-.4-2.19-1.24-3.32-1.79-.56-.27-1.09-.61-1.67-.83-.52-.2-1.02-.5-1.51-.76-1.03-.52-2.1-1.08-3.08-1.71,1.04,1.06,1.8,2.32,2.61,3.56.88,1.33,1.94,2.51,2.94,3.73,1.05,1.28,2.11,2.55,3.15,3.83.91,1.12,1.96,2.24,2.58,3.56,0,0,0,0,0,0h0s.02.04.03.07c.14.3-.74.13-.87-.05-.54-.76-1.1-1.47-1.76-2.12-.11-.11-.27-.35-.4-.41-.16-.08-.36.09-.5.22-.3.28-.42.62-.4,1.03.05.71.38,1.56.83,2.12.22.27.53.56.86.67.55.19,1.11-.2,1.57-.45.19-.11.99.08.78.39h0Zm-86.34-13.11c-.51-.31-1.06-.56-1.62-.75-1.25-.41-2.56-.52-3.86-.64-1.38-.13-2.75-.12-4.13-.08-1.59.04-3.13-.01-4.71-.17-.75-.07-1.51-.01-2.26-.2-.53-.13-1.01-.26-1.54-.06-.21.08-.02.28.08.35.17.12.44.16.64.08.4-.15,1.13.19,1.55.24.55.06,1.11.03,1.66.09,1.17.11,2.32.21,3.5.2,2.44-.01,4.83-.1,7.25.25,1.16.17,2.24.51,3.23,1.16.11.07.31.18.38.27.14.17.21.04-.07.19-.2.11-.5.14-.72.19-.59.14-1.2.24-1.8.33-.59.09-1.18.21-1.78.2-.58,0-1.14,0-1.72.06-1.24.13-2.47.05-3.71.07-1.33.02-2.64.18-3.97.11-1.35-.07-2.75.12-4.08-.11-.14-.02-.4,0-.39.19.01.19.37.28.51.31,1.31.23,2.65.04,3.97.1,1.41.07,2.79-.06,4.19-.09,1.43-.03,2.83,0,4.25-.12.63-.05,1.27.02,1.91-.03.67-.06,1.34-.2,2-.31.4-.07,2.7-.27,2.4-.96-.16-.37-.83-.69-1.15-.88h0Zm22.93-2.56c-.72.75-1.39,1.54-2.08,2.32-.68.77-1.4,1.63-2.3,2.15-1.8,1.05-3.89,1.46-5.9,1.88-.51.11.26.55.55.49,2.06-.43,4.22-.86,6.07-1.93.89-.52,1.6-1.32,2.28-2.08.74-.83,1.44-1.68,2.21-2.48.24-.24-.61-.58-.83-.35h0Zm18.3,11.13c1.39-.47,2.83-.59,4.27-.85.75-.14,1.46-.18,2.23-.2.71-.02,1.41-.19,2.12-.21.61-.02,0-.52-.35-.51-.52.02-1.02.11-1.54.17-.55.06-1.09.02-1.64.05-1.07.07-2.11.37-3.17.5-1.02.13-1.97.38-2.94.71-1.13.39-2.2.57-3.39.59-1.38.02-3.86.35-4.11-1.59-.26-2.02,1.85-3.12,3.44-3.65,1.13-.37,2.31-.41,3.46-.69.61-.15,1.17-.14,1.79-.18.61-.04,1.2-.18,1.81-.19.6,0,0-.51-.35-.51-.56,0-1.1.12-1.66.18-.62.06-1.21,0-1.82.14-1.14.25-2.33.34-3.45.66-1.79.53-3.83,1.44-4.11,3.51-.24,1.77,1.48,2.67,2.99,2.8,1.05.09,2.13.07,3.18,0,1.14-.07,2.15-.38,3.23-.74h0Zm14.14,4.95c.86-.17,1.73-.12,2.6-.12.18,0,.31-.09.24-.26-.07-.18-.43-.25-.59-.25-1.26,0-2.42.04-3.65.34-1.09.27-2.19.5-3.26.85-1.09.36-2.22.59-3.3,1.01-1.06.41-2.18.7-3.3.91-.56.1-1.12.11-1.69.16-.69.05-1.36.11-2.05-.04-.41-.09-.83-.22-1.19-.43-.51-.3-.56-.75-.5-1.32.12-1.04.82-1.63,1.67-2.16.94-.59,1.89-.98,2.96-1.26,1.27-.33,2.57-.62,3.84-.97,1.32-.37,2.6-.86,3.94-1.2.5-.13-.26-.56-.55-.49-1.33.34-2.61.83-3.94,1.2-1.27.36-2.56.64-3.84.97-1.12.29-2.14.69-3.12,1.31-.81.51-1.62,1.1-1.81,2.1-.18.95.01,1.63.87,2.12.89.5,1.95.73,2.96.75,1.17.02,2.46-.09,3.59-.39.61-.16,1.24-.25,1.85-.43.62-.18,1.19-.47,1.81-.66,1.36-.41,2.75-.88,4.13-1.18.79-.17,1.56-.4,2.35-.56h0Zm13.44,1.66c-.52.42-1.33.37-1.96.48-.81.14-1.58.5-2.34.81-1.77.7-3.6,1.22-5.35,1.96-.87.37-1.7.75-2.63.96-.9.2-1.81.39-2.73.48-.74.08-2.02.25-1.94-.86.05-.69.46-1.48.95-1.96.65-.64,1.54-.9,2.34-1.28.46-.21.91-.46,1.37-.65.55-.22,1.15-.3,1.72-.44.51-.12-.26-.56-.55-.49-.5.12-1.02.21-1.51.36-.54.17-1.04.45-1.55.69-.82.39-1.7.66-2.42,1.24-1.05.84-2.01,3.02-.33,3.71.74.31,1.58.25,2.36.17,1.05-.11,2.11-.31,3.13-.57,1.08-.27,2.06-.79,3.09-1.18,1.07-.4,2.14-.8,3.22-1.18,1.17-.4,2.36-1.02,3.58-1.27.8-.16,1.7-.1,2.38-.64.24-.2-.58-.55-.83-.35h0Zm43.25-2.17c-.12-.17-.32-.28-.49-.39-.34-.24-.63-.54-.95-.81-.18-.15-.49-.3-.38-.57.1-.22.45-.42.64-.55.51-.37.98-.74,1.42-1.2,1.72-1.84,2.96-4.49,2.28-7.04-.34-1.3-.84-2.57-1.48-3.75-.67-1.23-1.54-2.34-2.04-3.65-.37-.96-.45-1.9-.52-2.91-.05-.76-.11-1.64-.54-2.29-1.19-1.8-3.72-.14-4.68,1.03-.52.64-.89,1.45-.22,2.13.54.55,1.31.72,1.94,1.11-.57-.02-1.25-.26-1.71-.37-.74-.18-1.44-.44-2.16-.69-1.43-.49-2.88-.81-4.28-1.42-.67-.3-1.3-.67-1.96-.99-.72-.35-1.42-.67-2.12-1.06-.53-.3-1.08-.59-1.58-.95-.67-.48-1.23-1.11-1.77-1.73-.94-1.09-1.84-2.2-2.91-3.17-1.01-.9-2.12-1.67-3.25-2.42-.53-.36-1.09-.6-1.66-.87-.73-.34-1.39-.77-2.06-1.21-1.23-.81-2.52-1.39-3.81-2.08-.59-.32-1.2-.61-1.8-.93-.59-.31-1.25-.45-1.89-.66-.69-.23-1.31-.53-1.93-.9-.62-.37-1.31-.56-1.87-1.03-1.13-.94-2.46-1.52-3.63-2.4-1.05-.79-2.08-1.61-3.21-2.28-1.7-1.02-4.58-2.47-6.06-.38-.32.45-.68.94-.78,1.5-.11.66.11,1.31.4,1.89.54,1.07,1.31,2.02,2.19,2.84,1.96,1.82,4.44,2.97,6.89,3.95,1.47.59,2.87,1.21,3.95,2.43.49.55,1.02,1.27,1.21,1.99.09.33.06.7.23,1,.13.22.35.32.54.47.15.12.44.25.64.17.16-.06.26-.18.09-.32-.24-.2-.4-.31-.49-.62-.09-.32-.1-.63-.23-.94-.24-.58-.63-1.14-1.03-1.62-.77-.93-1.76-1.66-2.83-2.2-1.07-.54-2.22-.91-3.32-1.39-1.08-.48-2.13-1.01-3.12-1.65-1.05-.68-2.02-1.49-2.81-2.47-.78-.97-1.84-2.42-1.28-3.72.5-1.17,1.42-2.12,2.76-1.77,1.3.35,2.5,1.07,3.6,1.84,1.1.77,2.12,1.66,3.28,2.34.62.36,1.27.67,1.83,1.11.5.39.92.8,1.5,1.07,1.19.55,2.28,1.2,3.54,1.61.69.22,1.3.47,1.95.8.63.32,1.26.64,1.89.96.6.3,1.22.54,1.8.88.66.39,1.28.83,1.92,1.24.56.37,1.15.67,1.77.95.65.29,1.22.65,1.81,1.05,1.16.79,2.27,1.62,3.26,2.62,1.04,1.04,1.91,2.24,2.92,3.3,1.01,1.05,2.29,1.72,3.54,2.43.71.4,1.48.67,2.2,1.05.69.36,1.39.7,2.12.99,1.5.59,3.06.96,4.58,1.49.71.25,1.45.43,2.19.57.62.12,1.31.34,1.94.17.18-.05.23-.18.09-.32-.52-.48-1.22-.68-1.82-1.03-.75-.44-.83-1.02-.35-1.73.47-.69,1.18-1.27,1.93-1.64.24-.12.69-.36.98-.27.31.1.46.56.54.84.21.69.23,1.42.27,2.13.05.92.24,1.8.59,2.66.45,1.07,1.11,2,1.69,2.98.62,1.06,1.08,2.17,1.47,3.34.42,1.29.55,2.41.21,3.74-.29,1.09-.73,2.16-1.45,3.05-.36.44-.75.88-1.16,1.27-.38.36-.81.61-1.22.94-.27.21-.69.51-.49.88.2.38.69.67,1,.95.19.17.37.33.58.48.05.03.2.1.24.16.3.38.07.3-.05.5-.32.53-.81,1.03-1.2,1.51-.77.95-1.6,1.83-2.58,2.56-.51.38-1.04.73-1.58,1.08-.47.31-1.13.92-1.55.25-.61-1-1.16-2.05-1.74-3.07-.35-.6-.7-1.2-.94-1.85-.11-.3-.55-1.37-.19-1.62.2-.14.71.21.88.3.47.26.94.53,1.41.79.74.41,1.79,1.25,2.69.83.43-.2.7-.65,1.01-.99.4-.45.74-1,1.22-1.38.12-.1-.06-.27-.14-.31-.69-.37-1.41-.46-2.19-.51-.47-.03-.92-.17-1.39-.2-.4-.02-.79,0-1.19,0-1.94.02-3.92-.15-5.84-.45-.94-.15-1.66-.52-2.51-.92-.78-.37-1.69-.61-2.54-.77-1.91-.36-3.86.26-5.71.68-.51.12.26.55.55.49,1.87-.42,3.82-1.08,5.73-.56.81.22,1.53.49,2.27.87.68.35,1.38.55,2.13.68,1.62.28,3.31.41,4.96.47.85.03,1.73-.08,2.57.03.39.05.75.15,1.14.18.37.02.76.03,1.12.14-.36.35-.64.78-.97,1.15-.18.2-.34.42-.53.62-.36.38-.57.4-1.04.13-.89-.5-1.77-1.07-2.69-1.49-.47-.22-1.45-.61-1.84-.04-.23.33-.08.85,0,1.2.17.68.49,1.32.83,1.93.66,1.19,1.36,2.36,2.02,3.55.52.94,1.5,1.32,2.46.77,1.11-.63,2.22-1.4,3.18-2.25,1.08-.95,1.93-2.11,2.82-3.22.27-.33.62-.59.31-1.03h0Zm38.43,14.85c-.18-.12-.44-.16-.64-.08-.59.22-1.42,0-2.04-.05-.87-.07-1.74-.22-2.61-.33-1.65-.22-3.28-.41-4.9-.78-1.58-.37-3.18-.81-4.69-1.42-1.43-.57-2.66-1.46-4.02-2.16-1.39-.71-2.86-1.29-4.19-2.11-.43-.27-1.21-.66-1.02-1.28.19-.58.99-.54,1.49-.55,3.31-.01,6.51.99,9.78,1.33.94.1,1.87.18,2.8.39.8.18,1.6.35,2.42.44.95.11,1.92.13,2.87.26.7.09,1.4.29,2.11.1.05-.01.17-.05.17-.12.1-1.05-2.58-1.17-3.14-1.31-2.63-.67-5.34-1.16-8.01-1.61-2.81-.48-5.59-1.13-8.39-1.62-1.23-.22-2.41-.07-3.59.35-.55.19-1.08.45-1.62.66-.75.29-1.33.35-2.1.11-1.41-.43-2.79-.94-4.25-1.18-1-.16-2-.23-3.01-.26.38-.09.75-.19,1.15-.23,1.01-.1,2.04.03,3.04.14.95.1,1.91.17,2.86.26.78.07,1.57.18,2.35.06.72-.11,1.23-.38,1.56-1.05.38-.79.7-1.62,1.01-2.44.68-1.78,1.28-3.6,1.77-5.45.5-1.88.89-3.71.76-5.66-.06-.92-.14-1.83-.16-2.76-.01-.8-.02-1.68-.37-2.42-.28-.59-.85-.87-1.43-1.12-.88-.38-1.77-.74-2.68-1.05-1.63-.57-3.31-.88-4.98-1.32-.94-.25-1.87-.59-2.67-1.17-.83-.59-1.53-1.4-2.22-2.14-.59-.64-1.15-1.3-1.96-1.67-.74-.33-1.53-.38-2.32-.25-.21.03-.18.19-.09.32.12.16.45.2.64.17.83-.13,1.51.06,2.12.63.64.59,1.19,1.29,1.81,1.92,1.1,1.12,2.28,1.92,3.78,2.41,1.48.49,3.04.69,4.54,1.15.84.26,1.67.56,2.49.89.74.3,1.87.53,2.16,1.36.26.72.26,1.52.28,2.27.01.89.09,1.77.15,2.66.13,1.84-.24,3.55-.7,5.32-.46,1.75-1.02,3.47-1.64,5.17-.29.79-.61,1.57-.94,2.34-.13.31-.24.68-.46.94-.33.38-.88.46-1.36.48-.93.04-1.91-.12-2.83-.2-1.07-.1-2.13-.23-3.19-.3-.87-.06-1.73-.06-2.59.13-.57.13-1.39.2-1.79.68-.22.26.45.43.59.43,1.34-.02,2.68,0,4.01.18,1.25.17,2.44.54,3.64.94,1.06.35,2,.67,3.11.35,1.09-.31,2.06-.9,3.17-1.14,1.33-.29,2.63.07,3.93.34,1.24.26,2.48.54,3.73.77,2.56.47,5.13.93,7.68,1.43,1.16.23,2.3.54,3.46.74.21.04,1.52.18,1.76.41-.71.1-1.55-.17-2.24-.23-.92-.08-1.84-.13-2.76-.27-.85-.13-1.69-.36-2.54-.51-.88-.15-1.78-.2-2.67-.3-1.82-.22-3.59-.65-5.4-.94-1.52-.24-3.17-.48-4.71-.3-.46.05-1.02.19-1.24.65-.25.52.08,1.01.48,1.34,1.18,1,2.73,1.59,4.11,2.24,1.54.73,2.93,1.72,4.47,2.42,1.54.69,3.19,1.18,4.82,1.6,1.99.51,3.99.76,6.01,1.03,1.01.14,2,.27,3.01.35.72.06,1.42.21,2.12-.04.21-.08.02-.28-.08-.35h0Zm-22.6-32.83c.3.3.49.7.81.98.58.5,1.43.61,2.17.63.95.03,1.91-.07,2.85-.2.61-.08,1.23-.18,1.84-.29.61-.11,1.21-.29,1.84-.3.6-.01,0-.52-.35-.51-.87.02-1.72.27-2.58.41-.98.16-1.95.31-2.94.36-.61.03-1.48.16-2.02-.18-.29-.18-.42-.53-.64-.78-.19-.21-.44-.39-.57-.65,1.8-.37,3.5-.76,5.36-.55,1.78.2,3.5.71,5.26,1,1.55.25,3.03-.08,4.49-.56.84-.28,1.63-.59,2.53-.61,1.01-.03,2.02.06,3.02.2.62.09.31-.44-.12-.5-1.72-.24-3.52-.41-5.2.15-.86.29-1.7.6-2.59.78-.92.18-1.81.14-2.73-.04-1.81-.36-3.6-.84-5.44-.97-1.85-.13-3.57.31-5.36.67-.09.02-.2.08-.17.19.08.33.32.56.55.8h0ZM20.36,6.84s0-.06,0-.09c0-.07.12-.11.17-.12.71-.15,1.53-.05,2.25,0,.77.04,1.54.11,2.32.17,1.71.13,3.41.3,5.1.6,5.79,1.02,11.63,2.18,17.18,4.16,1.38.49,2.74,1.05,4.14,1.48,1.35.42,2.64.97,3.97,1.44,1.37.48,2.78.83,4.17,1.24,1.4.42,2.82.66,4.25.93.11.02.36.08.47.2.09-.05.22-.05.31-.04.59.11,1.19.16,1.79.22.52.05,1.02.19,1.53.27,1.1.17,2.21.02,3.32.03.94,0,1.87.19,2.82.22.96.03,1.9.21,2.84.37.96.16,1.91.43,2.86.6.96.17,1.94.27,2.9.42,1.97.3,3.95.51,5.92.83.95.16,1.91.28,2.84.5.8.19,1.7.24,2.46.56.27.11.39.44,0,.44-1.29-.01-2.85.14-4.02.71-.16.08-.61.27-.6.49.01.49.85.15,1.09.08.64-.18,1.29-.37,1.95-.52,1.2-.27,2.38-.55,3.6-.69.98-.11,1.95-.39,2.86.13.5.29.95.65,1.41,1,.43.33.91.56,1.37.85,1,.62,2.26.78,3.41.91,2.37.28,4.48,1.08,6.63,2.07.84.39,1.72.77,2.4,1.41.34.32.63.71.83,1.13.2.42.17.74.13,1.17.47.09.9.29,1.36.39,1.1.23,2.17.8,3.3.83.16,0,.52.06.59.25.07.18-.06.27-.24.26-.59-.01-1.17-.1-1.73-.28-.56-.18-1.09-.42-1.67-.53-.56-.1-1.09-.36-1.64-.44-.58-.09-1.16-.16-1.74-.27-.64-.12-1.29-.24-1.93-.33-.62-.09-1.26-.1-1.88-.23-.51-.11-.97-.35-1.48-.47-.62-.15-1.24-.34-1.85-.52-.12-.04-.37-.13-.39-.28-.07-.45.78-.91,1.12-1.11.71-.43,1.47-.28,2.23-.08,1.83.49,3.43,1.41,5.07,2.29,0-.24-.01-.46-.14-.73-.15-.31-.36-.6-.6-.84-.44-.44-1.01-.74-1.57-1-1.24-.59-2.49-1.17-3.8-1.59-.63-.2-1.26-.39-1.92-.48-.6-.09-1.21-.13-1.81-.23-1.05-.18-2.17-.37-3.09-.94-.46-.29-.95-.51-1.39-.84-.49-.36-.99-.87-1.55-1.12-.55-.24-1.48.06-2.07.13-.61.07-1.2.18-1.8.33-1.23.32-2.48.59-3.71.92-.63.17-1.87.26-2.21-.5-.49-1.09,1.84-1.57,3.55-1.76-.48-.11-.96-.24-1.45-.33-1.11-.2-2.24-.32-3.35-.5-1.87-.3-3.75-.53-5.63-.82-.92-.14-1.82-.24-2.73-.46-.98-.24-1.98-.4-2.98-.56-.92-.15-1.83-.12-2.75-.22-.95-.11-1.86-.14-2.82-.11-.88.03-1.76.02-2.62-.15-.96-.19-1.93-.23-2.89-.4-.11-.02-.36-.08-.47-.2-.09.05-.22.05-.31.04-1.55-.28-3.08-.55-4.59-1.01-1.47-.44-2.96-.81-4.41-1.33-1.32-.47-2.6-1-3.94-1.41-1.31-.41-2.58-.93-3.87-1.4-2.83-1.03-5.76-1.79-8.69-2.46-2.86-.66-5.75-1.23-8.65-1.72-1.47-.25-2.95-.39-4.44-.51-.74-.06-1.47-.12-2.21-.17-.61-.04-1.37-.14-2-.05-.05.29-.94.09-.9-.25h0Zm93.37,22.98c-1.2-.65-2.36-1.33-3.65-1.81-.67-.25-1.67-.72-2.35-.37-.14.07-.8.46-1.01.72.46.14.93.27,1.4.39.51.12.99.38,1.5.47,1.18.2,2.37.29,3.54.51.19.03.37.07.56.1h0Zm-62.4-4.94c-1.92-.12-3.69-.85-5.45-1.56-4.09-1.67-7.85-3.89-11.53-6.31-2.09-1.37-4.17-2.78-6.27-4.14-1.99-1.29-4.01-2.55-6.21-3.47-.4-.17-.94.13-.36.37,2.16.9,4.14,2.15,6.1,3.42,2.01,1.3,4,2.64,6,3.96,3.9,2.56,7.87,4.89,12.2,6.65,1.82.74,3.67,1.44,5.65,1.58,1.13.08,2.74.08,3.47-.96.98-1.39-.37-2.7-1.52-3.36-1.84-1.05-3.9-1.69-5.92-2.29-5.18-1.54-10.45-2.81-15.49-4.79-.4-.16-.94.14-.36.37,4.09,1.61,8.33,2.75,12.55,3.95,2.13.6,4.29,1.17,6.36,1.97,1.22.47,3.93,1.34,3.79,3.04-.12,1.49-1.85,1.64-3.02,1.57h0Zm12.91,29.09c-2.85,0-5.69-.26-8.5-.74-1.28-.22-2.59-.37-3.85-.7-1.29-.34-2.53-.8-3.84-1.09-1.32-.29-2.64-.55-3.93-.96-1.25-.39-2.49-.89-3.77-1.18-.62-.14-1.26-.21-1.87-.4-.56-.18-1.09-.4-1.66-.53-1.32-.3-2.67-.52-4.01-.73-1.51-.24-3.03-.37-4.55-.51-.72-.07-1.44-.14-2.16-.25-.71-.11-1.4-.37-2.12-.32-.6.04,0,.53.35.51.62-.05,1.28.21,1.9.31.68.1,1.36.18,2.05.24,1.37.13,2.74.24,4.1.44,1.37.2,2.74.45,4.11.73.59.12,1.13.33,1.7.51.62.21,1.26.3,1.9.43,1.34.28,2.62.8,3.93,1.21,1.25.39,2.54.65,3.82.93,1.28.28,2.49.7,3.74,1.06,1.22.35,2.49.48,3.73.7,3.07.55,6.17.84,9.29.85.18,0,.31-.08.24-.26-.07-.18-.43-.25-.59-.25h0Zm177.68-7.05c1.17.07,2.32.12,3.48.25,1.12.13,2.24.26,3.37.3,2.27.1,4.48-.4,6.74-.52,1.2-.06,2.42-.04,3.62-.05,1.12-.01,2.13-.03,3.17.45.83.39,1.62.83,2.5,1.1,1.1.34,2.15.78,3.18,1.31.98.5,1.94,1.07,2.89,1.62.44.26.89.52,1.34.77.44.25.93.47,1.28.85,1.08,1.16-.83,2.12-1.72,2.46-1.78.68-3.56.66-5.31-.08-1.06-.45-2.02-1.05-3.14-1.36-1.16-.32-2.31-.5-3.42-.98-1.87-.8-3.84-1.91-5.94-1.58-.21.03-.18.19-.09.32.12.16.45.2.64.17,2.12-.33,4.15,1.22,6.07,1.86,1.11.37,2.29.46,3.37.91,1.04.42,1.98,1.02,3.05,1.37,1.71.56,3.46.51,5.15-.07.91-.31,2.8-1.07,2.54-2.35-.14-.69-.85-1.16-1.41-1.48-1.04-.6-2.08-1.2-3.12-1.79-.99-.56-1.99-1.11-3.03-1.57-1.02-.45-2.12-.7-3.12-1.16-.85-.39-1.66-.89-2.58-1.12-1.12-.27-2.32-.16-3.46-.14-1.29.02-2.58,0-3.87.12-1.2.12-2.39.31-3.6.4-2.81.21-5.61-.4-8.41-.5-1.23-.05-2.43-.33-3.66-.45-1.23-.11-2.41.02-3.57.48-.37.14.44.54.72.43,2.13-.84,4.16-.12,6.34.02h0Zm50.63,34.19c-1.73.28-3.26,1.2-4.98,1.53-1.95.38-3.98.15-5.96.14-3.9-.02-7.91.38-11.71-.63-1.78-.47-3.52-1.07-5.29-1.54-1.93-.51-3.88-.95-5.81-1.47-1.81-.49-3.55-1.1-5.42-1.33-1.78-.22-3.58-.31-5.37-.19-4.06.26-8.03,1.32-11.94,2.39-.5.14.26.57.55.49,3.55-.97,7.14-1.94,10.81-2.29,1.82-.17,3.63-.14,5.44.04,1.98.19,3.79.8,5.7,1.32,1.89.51,3.81.95,5.7,1.44,1.82.48,3.6,1.09,5.41,1.57,1.71.46,3.43.73,5.2.73,2.02,0,4.04,0,6.06-.01,2.1,0,4.24.2,6.33-.04,2.04-.23,3.81-1.33,5.83-1.65.21-.03.19-.19.09-.32-.12-.16-.45-.2-.64-.17h0Zm6.92-26.85c-1.03-.17-1.97-.7-2.89-1.16-.9-.45-1.83-.85-2.73-1.31-1.92-.96-3.79-2.02-5.78-2.83-3.83-1.57-7.98-1.71-12.05-1.85-2.4-.08-4.82-.19-7.19-.66-.54-.11-.68.34-.12.45,4.12.82,8.31.59,12.47.97,2.16.2,4.31.58,6.33,1.38,2.03.8,3.94,1.88,5.88,2.86,1.05.53,2.13,1.01,3.19,1.53.97.48,1.94.93,3.01,1.11.14.02.4,0,.39-.19-.01-.19-.37-.28-.51-.31h0ZM23.88,43.65c-.23-.07-.33-.4-.48-.57-.19-.22-.43-.37-.68-.5-.64-.35-1.31-.64-1.99-.91-1.51-.61-3.06-.76-4.68-.77-.89,0-1.78,0-2.66-.15-.82-.14-1.63-.36-2.46-.4-1.76-.09-3.51.49-5.28.5-1.89.02-3.72-.01-5.53.59-.42.14.42.47.53.47.88.04,1.72-.14,2.59-.21.95-.08,1.9.11,2.83.26,1.8.28,3.47.74,5.11,1.52,3.08,1.46,6.48,2.61,9.9,2.87.62.05.32-.46-.12-.5-1.87-.15-3.68-.65-5.47-1.18-1.71-.5-3.23-1.28-4.86-1.98-1.6-.69-3.3-1.03-5.02-1.28-.08-.01-.16-.02-.24-.04.56,0,1.13-.02,1.7-.06,1.03-.08,2.04-.29,3.06-.41,1.13-.14,2.17.12,3.28.32,2.04.37,4.15-.07,6.16.52.88.26,1.78.65,2.58,1.1.38.21.5.46.76.77.22.27.51.4.84.49.54.15.66-.3.12-.45h0ZM1.62.51c1.67-.01,3.24.5,4.81,1.03,1.53.52,3.03,1.08,4.53,1.67,2.9,1.13,5.82,2.26,8.88,2.87.54.11.68-.34.12-.45-3.26-.65-6.34-1.9-9.42-3.09-1.49-.58-2.98-1.11-4.5-1.62C4.49.4,2.92,0,1.27,0c-.6,0,0,.51.35.51Z"/>
</svg>